<svg width="196" height="52" viewBox="0 0 196 52" fill="none" xmlns="http://www.w3.org/2000/svg">
<path d="M30.576 4.448V27.632C30.576 32.432 29.056 35.968 26.016 38.24C23.744 39.968 20.928 40.832 17.568 40.832C14.24 40.832 11.424 39.968 9.12 38.24C6.112 36 4.608 32.464 4.608 27.632V4.448H9.84V27.392C9.84 29.984 10.496 32.032 11.808 33.536C13.152 35.136 15.072 35.936 17.568 35.936C20.064 35.936 22.016 35.136 23.424 33.536C24.704 32.064 25.344 30.016 25.344 27.392V4.448H30.576ZM59.5459 40.064H36.4579V35.888L52.9219 9.44H36.8419V4.544H58.9219V8.72L42.6019 35.12H59.5459V40.064Z" fill="#1AB196"/>
<path d="M70.196 13.9091H75.5227L84.7841 36.5227H85.125L94.3864 13.9091H99.7131V43H95.5369V21.9489H95.267L86.6875 42.9574H83.2216L74.642 21.9347H74.3722V43H70.196V13.9091ZM131.364 28.4545C131.364 31.5606 130.796 34.2311 129.66 36.4659C128.523 38.6913 126.966 40.4053 124.987 41.608C123.017 42.8011 120.777 43.3977 118.268 43.3977C115.749 43.3977 113.5 42.8011 111.521 41.608C109.551 40.4053 107.998 38.6866 106.862 36.4517C105.725 34.2169 105.157 31.5511 105.157 28.4545C105.157 25.3485 105.725 22.6828 106.862 20.4574C107.998 18.2225 109.551 16.5085 111.521 15.3153C113.5 14.1127 115.749 13.5114 118.268 13.5114C120.777 13.5114 123.017 14.1127 124.987 15.3153C126.966 16.5085 128.523 18.2225 129.66 20.4574C130.796 22.6828 131.364 25.3485 131.364 28.4545ZM127.018 28.4545C127.018 26.0871 126.634 24.0937 125.867 22.4744C125.11 20.8456 124.068 19.6146 122.742 18.7812C121.426 17.9384 119.934 17.517 118.268 17.517C116.592 17.517 115.095 17.9384 113.779 18.7812C112.463 19.6146 111.421 20.8456 110.654 22.4744C109.897 24.0937 109.518 26.0871 109.518 28.4545C109.518 30.822 109.897 32.8201 110.654 34.4489C111.421 36.0682 112.463 37.2992 113.779 38.142C115.095 38.9754 116.592 39.392 118.268 39.392C119.934 39.392 121.426 38.9754 122.742 38.142C124.068 37.2992 125.11 36.0682 125.867 34.4489C126.634 32.8201 127.018 30.822 127.018 28.4545ZM137.934 13.9091L146.031 37.6023H146.357L154.454 13.9091H159.198L148.729 43H143.658L133.19 13.9091H137.934ZM167.788 13.9091V43H163.399V13.9091H167.788ZM174.18 43V13.9091H192.419V17.6875H178.57V26.5511H191.467V30.3153H178.57V39.2216H192.589V43H174.18Z" fill="white"/>
</svg>
